<svg version="1.1" id="Layer_1" xmlns="http://www.w3.org/2000/svg" xmlns:xlink="http://www.w3.org/1999/xlink" x="0px" y="0px"
	 width="100%" viewBox="0 0 247 190" enable-background="new 0 0 247 190" xml:space="preserve">
<path fill="#FDFDFD" opacity="1.000000" stroke="none" 
	d="
M157.000000,191.000000 
	C104.666672,191.000000 52.833340,191.000000 1.000007,191.000000 
	C1.000005,127.666672 1.000005,64.333344 1.000002,1.000015 
	C83.333321,1.000010 165.666641,1.000010 247.999969,1.000005 
	C247.999985,64.333321 247.999985,127.666634 248.000000,190.999969 
	C217.833328,191.000000 187.666672,191.000000 157.000000,191.000000 
M95.510674,12.828678 
	C92.413773,12.828678 89.316864,12.828678 86.295685,12.828678 
	C86.295685,68.631424 86.295685,123.851921 86.295685,178.897461 
	C93.404022,178.897461 100.178886,178.897461 107.332016,178.897461 
	C107.332016,139.802444 107.332016,100.963356 107.332016,61.598976 
	C108.150810,62.316517 108.568756,62.559036 108.817535,62.918602 
	C119.665291,78.597221 131.294678,93.810608 141.046463,110.144798 
	C147.318466,120.650391 154.734711,125.344627 166.524323,122.921318 
	C168.354553,122.545128 170.588791,121.587112 171.598618,120.162628 
	C181.283249,106.500923 190.732895,92.672829 200.276260,78.910698 
	C204.169083,73.297005 208.126495,67.728104 212.066299,62.122078 
	C212.632935,62.624344 212.837769,62.721058 212.837875,62.818005 
	C212.853516,76.314262 212.963913,89.811722 212.817490,103.306396 
	C212.718323,112.445702 212.740845,121.628830 211.844986,130.707092 
	C210.487228,144.465881 199.210663,154.054794 185.389008,153.961487 
	C174.932068,153.890900 166.348740,149.058975 157.909683,142.632156 
	C153.070877,150.996216 148.346344,159.162720 143.373459,167.758530 
	C148.484467,170.474121 152.838684,173.216690 157.515350,175.198441 
	C178.238953,183.980164 199.063354,184.459427 218.563416,172.571198 
	C237.327667,161.131546 243.669800,142.346542 243.896072,121.462723 
	C244.271545,86.809311 243.998947,52.148876 243.999359,17.491400 
	C243.999374,16.038845 243.999359,14.586292 243.999359,12.835440 
	C233.570816,12.835440 223.607666,12.724719 213.652893,12.963543 
	C212.275620,12.996584 210.538254,14.479153 209.646362,15.762427 
	C199.710846,30.058079 189.906815,44.445141 180.071762,58.810581 
	C173.504456,68.403053 166.944305,78.000435 160.150223,87.932907 
	C159.203979,86.609253 158.622269,85.827003 158.073013,85.022606 
	C143.865860,64.216217 129.183121,43.710979 115.707153,22.441191 
	C110.722450,14.573582 105.253296,11.356624 95.510674,12.828678 
M60.287243,168.143616 
	C64.443604,173.787506 68.268814,175.515396 73.284981,174.014893 
	C78.281387,172.520294 81.006927,168.137772 81.007149,161.583252 
	C81.008347,124.921997 81.007973,88.260735 81.008049,51.599476 
	C81.008072,41.434307 81.050224,31.268894 80.991058,21.104071 
	C80.957901,15.408319 78.705002,13.368486 72.973816,13.721548 
	C65.289124,14.194952 59.000637,17.279390 54.473045,23.685448 
	C53.750256,24.708115 52.814629,25.787563 51.723297,26.311090 
	C38.016743,32.886375 30.726772,43.888916 28.952778,58.810921 
	C28.844282,59.723541 28.432020,60.706200 27.877886,61.443386 
	C21.864431,69.443260 21.188890,78.568054 22.361359,88.010078 
	C22.897190,92.325211 20.522186,96.410660 16.259459,97.639320 
	C11.315886,99.064232 8.826271,103.171463 10.390943,107.320854 
	C12.083634,111.809731 16.768110,113.349968 21.455488,111.365623 
	C23.260490,110.601501 25.489983,110.486458 27.488497,110.623520 
	C29.931849,110.791084 32.315102,111.716446 34.760662,111.993294 
	C41.144955,112.716019 44.063892,118.154480 47.792274,122.088585 
	C49.237679,123.613739 48.028282,127.654884 48.028282,131.835526 
	C44.485466,129.560410 40.862076,128.407196 39.252861,125.940163 
	C36.455353,121.651382 32.975822,119.437073 28.722324,121.232689 
	C25.137407,122.746056 23.317259,127.725777 25.015818,131.373276 
	C26.753191,135.104126 31.235876,136.197037 35.833290,134.297409 
	C37.149284,133.753647 38.822510,133.788315 40.290298,133.945816 
	C48.117012,134.785583 52.721127,140.576691 57.507812,145.770905 
	C62.196629,150.858932 67.026978,154.946136 74.545227,153.567947 
	C74.766937,153.527313 75.067917,153.919083 75.769478,154.424377 
	C75.769478,157.247665 76.235535,160.483978 75.603325,163.489258 
	C75.191528,165.446793 73.486458,168.037140 71.802803,168.565247 
	C70.151443,169.083252 67.389481,167.815201 65.856163,166.479874 
	C64.199432,165.037079 62.882278,162.739182 62.338879,160.582047 
	C61.276421,156.364395 58.742077,153.828186 55.103134,151.791382 
	C53.782360,151.052124 52.718281,149.295944 52.207054,147.778076 
	C50.907806,143.920532 47.076477,141.290237 43.486214,142.204849 
	C39.135319,143.313217 36.681137,147.491364 37.866005,151.772995 
	C38.975235,155.781326 43.191383,157.746475 47.358063,156.783661 
	C49.269291,156.342026 52.327213,156.306732 53.345711,157.445770 
	C55.984570,160.396973 57.779854,164.102448 60.287243,168.143616 
z"/>
<path fill="#010101" opacity="1.000000" stroke="none" 
	d="
M96.003403,12.828239 
	C105.253296,11.356624 110.722450,14.573582 115.707153,22.441191 
	C129.183121,43.710979 143.865860,64.216217 158.073013,85.022606 
	C158.622269,85.827003 159.203979,86.609253 160.150223,87.932907 
	C166.944305,78.000435 173.504456,68.403053 180.071762,58.810581 
	C189.906815,44.445141 199.710846,30.058079 209.646362,15.762427 
	C210.538254,14.479153 212.275620,12.996584 213.652893,12.963543 
	C223.607666,12.724719 233.570816,12.835440 243.999359,12.835440 
	C243.999359,14.586292 243.999374,16.038845 243.999359,17.491400 
	C243.998947,52.148876 244.271545,86.809311 243.896072,121.462723 
	C243.669800,142.346542 237.327667,161.131546 218.563416,172.571198 
	C199.063354,184.459427 178.238953,183.980164 157.515350,175.198441 
	C152.838684,173.216690 148.484467,170.474121 143.373459,167.758530 
	C148.346344,159.162720 153.070877,150.996216 157.909683,142.632156 
	C166.348740,149.058975 174.932068,153.890900 185.389008,153.961487 
	C199.210663,154.054794 210.487228,144.465881 211.844986,130.707092 
	C212.740845,121.628830 212.718323,112.445702 212.817490,103.306396 
	C212.963913,89.811722 212.853516,76.314262 212.837875,62.818005 
	C212.837769,62.721058 212.632935,62.624344 212.066299,62.122078 
	C208.126495,67.728104 204.169083,73.297005 200.276260,78.910698 
	C190.732895,92.672829 181.283249,106.500923 171.598618,120.162628 
	C170.588791,121.587112 168.354553,122.545128 166.524323,122.921318 
	C154.734711,125.344627 147.318466,120.650391 141.046463,110.144798 
	C131.294678,93.810608 119.665291,78.597221 108.817535,62.918602 
	C108.568756,62.559036 108.150810,62.316517 107.332016,61.598976 
	C107.332016,100.963356 107.332016,139.802444 107.332016,178.897461 
	C100.178886,178.897461 93.404022,178.897461 86.295685,178.897461 
	C86.295685,123.851921 86.295685,68.631424 86.295685,12.828678 
	C89.316864,12.828678 92.413773,12.828678 96.003403,12.828239 
z"/>
<path fill="#070707" opacity="1.000000" stroke="none" 
	d="
M60.099571,167.825226 
	C57.779854,164.102448 55.984570,160.396973 53.345711,157.445770 
	C52.327213,156.306732 49.269291,156.342026 47.358063,156.783661 
	C43.191383,157.746475 38.975235,155.781326 37.866005,151.772995 
	C36.681137,147.491364 39.135319,143.313217 43.486214,142.204849 
	C47.076477,141.290237 50.907806,143.920532 52.207054,147.778076 
	C52.718281,149.295944 53.782360,151.052124 55.103134,151.791382 
	C58.742077,153.828186 61.276421,156.364395 62.338879,160.582047 
	C62.882278,162.739182 64.199432,165.037079 65.856163,166.479874 
	C67.389481,167.815201 70.151443,169.083252 71.802803,168.565247 
	C73.486458,168.037140 75.191528,165.446793 75.603325,163.489258 
	C76.235535,160.483978 75.769478,157.247665 75.769478,154.424377 
	C75.067917,153.919083 74.766937,153.527313 74.545227,153.567947 
	C67.026978,154.946136 62.196629,150.858932 57.507812,145.770905 
	C52.721127,140.576691 48.117012,134.785583 40.290298,133.945816 
	C38.822510,133.788315 37.149284,133.753647 35.833290,134.297409 
	C31.235876,136.197037 26.753191,135.104126 25.015818,131.373276 
	C23.317259,127.725777 25.137407,122.746056 28.722324,121.232689 
	C32.975822,119.437073 36.455353,121.651382 39.252861,125.940163 
	C40.862076,128.407196 44.485466,129.560410 48.028282,131.835526 
	C48.028282,127.654884 49.237679,123.613739 47.792274,122.088585 
	C44.063892,118.154480 41.144955,112.716019 34.760662,111.993294 
	C32.315102,111.716446 29.931849,110.791084 27.488497,110.623520 
	C25.489983,110.486458 23.260490,110.601501 21.455488,111.365623 
	C16.768110,113.349968 12.083634,111.809731 10.390943,107.320854 
	C8.826271,103.171463 11.315886,99.064232 16.259459,97.639320 
	C20.522186,96.410660 22.897190,92.325211 22.361359,88.010078 
	C21.188890,78.568054 21.864431,69.443260 27.877886,61.443386 
	C28.432020,60.706200 28.844282,59.723541 28.952778,58.810921 
	C30.726772,43.888916 38.016743,32.886375 51.723297,26.311090 
	C52.814629,25.787563 53.750256,24.708115 54.473045,23.685448 
	C59.000637,17.279390 65.289124,14.194952 72.973816,13.721548 
	C78.705002,13.368486 80.957901,15.408319 80.991058,21.104071 
	C81.050224,31.268894 81.008072,41.434307 81.008049,51.599476 
	C81.007973,88.260735 81.008347,124.921997 81.007149,161.583252 
	C81.006927,168.137772 78.281387,172.520294 73.284981,174.014893 
	C68.268814,175.515396 64.443604,173.787506 60.099571,167.825226 
M66.450279,53.058750 
	C64.486740,53.723633 62.176201,55.390667 60.628452,54.854744 
	C56.849384,53.546215 54.351723,55.422741 51.583275,57.057568 
	C49.495579,58.290386 47.441616,59.580322 45.370865,60.845924 
	C43.704639,59.262566 42.139545,57.767216 40.565254,56.281609 
	C39.028294,54.831238 37.481945,53.390816 35.727337,51.747055 
	C33.656788,56.480522 33.599995,59.992500 37.132942,63.870510 
	C40.410984,67.468719 43.004066,70.774704 48.557884,69.138786 
	C49.363720,68.901428 50.798393,70.798958 51.942078,71.708580 
	C50.879860,72.514458 49.933617,73.670853 48.735882,74.067123 
	C42.703342,76.063026 37.794121,74.664658 34.425980,68.945953 
	C33.691547,67.698975 32.606888,66.658272 31.624975,65.450554 
	C26.598309,72.943466 26.683149,73.903671 32.698471,79.893486 
	C34.115162,81.304169 35.552799,82.694687 36.940781,84.133110 
	C38.775784,86.034805 40.376522,87.571228 43.649963,87.168152 
	C47.810810,86.655815 51.143734,90.565941 51.045609,94.684570 
	C50.947498,98.802406 47.289173,102.221916 43.230469,101.989540 
	C39.031609,101.749138 36.004528,98.321251 35.984364,93.976761 
	C35.978203,92.649635 35.977638,91.003136 35.251606,90.058533 
	C33.067177,87.216461 30.526566,84.648148 28.124884,81.973061 
	C27.193762,87.533928 29.679008,92.320503 25.572573,96.909973 
	C22.136087,100.750687 23.852594,105.119110 28.989624,105.426880 
	C38.540810,105.999130 45.565750,110.532005 51.163990,117.700119 
	C52.627563,119.574112 54.326725,122.625877 53.762726,124.481895 
	C51.523796,131.849838 54.894047,136.465134 60.123566,140.633087 
	C61.288792,141.561783 62.437973,142.607574 63.290565,143.814240 
	C66.418808,148.241577 70.637146,148.722427 75.159851,147.721222 
	C77.798080,141.015594 73.617729,137.181946 69.300758,134.250885 
	C62.696198,129.766693 61.267834,122.063576 56.884064,116.252243 
	C56.149448,115.278389 55.873722,112.891632 56.522839,112.141449 
	C58.442120,109.923363 60.763901,106.989479 63.247456,106.646400 
	C65.395012,106.349739 68.617180,108.724411 70.214531,110.802162 
	C72.373398,113.610336 70.933502,116.636795 68.674133,119.300705 
	C67.622330,120.540817 66.389915,123.222916 66.945412,123.952652 
	C69.248909,126.978600 72.203438,129.508942 75.344635,132.646423 
	C75.344635,107.431503 75.344635,83.321060 75.344635,58.506649 
	C72.717445,60.947037 70.685715,62.884796 68.599136,64.761589 
	C64.742973,68.230057 64.275108,78.207809 67.813232,82.165230 
	C71.048721,85.784180 70.916496,90.159378 67.481293,93.148651 
	C64.409218,95.821930 59.855495,95.599197 57.178219,92.644699 
	C54.247303,89.410301 54.735943,84.965881 58.046329,81.547722 
	C59.141163,80.417244 60.332417,78.479195 60.117504,77.126839 
	C58.677860,68.067680 62.139420,61.506367 69.560379,56.572552 
	C71.198570,55.483402 72.591049,53.957268 73.894295,52.456604 
	C74.695923,51.533554 75.611061,50.283768 75.625992,49.169312 
	C75.759407,39.207680 75.703758,29.243521 75.703758,19.224604 
	C69.716080,18.362782 65.163551,20.532101 61.178513,23.991449 
	C57.000286,27.618505 58.446671,37.776035 63.371284,40.463062 
	C69.225372,43.657249 70.099213,46.551777 66.450279,53.058750 
M44.634338,52.973396 
	C48.973507,54.919819 52.458534,51.324810 53.381729,49.100708 
	C55.649593,43.637119 57.549702,37.348164 51.475510,30.992481 
	C46.753811,35.952412 42.073299,40.869083 37.562302,45.607681 
	C40.225014,48.408932 42.163643,50.448429 44.634338,52.973396 
z"/>
<path fill="#F6F6F6" opacity="1.000000" stroke="none" 
	d="
M66.728958,52.783463 
	C70.099213,46.551777 69.225372,43.657249 63.371284,40.463062 
	C58.446671,37.776035 57.000286,27.618505 61.178513,23.991449 
	C65.163551,20.532101 69.716080,18.362782 75.703758,19.224604 
	C75.703758,29.243521 75.759407,39.207680 75.625992,49.169312 
	C75.611061,50.283768 74.695923,51.533554 73.894295,52.456604 
	C72.591049,53.957268 71.198570,55.483402 69.560379,56.572552 
	C62.139420,61.506367 58.677860,68.067680 60.117504,77.126839 
	C60.332417,78.479195 59.141163,80.417244 58.046329,81.547722 
	C54.735943,84.965881 54.247303,89.410301 57.178219,92.644699 
	C59.855495,95.599197 64.409218,95.821930 67.481293,93.148651 
	C70.916496,90.159378 71.048721,85.784180 67.813232,82.165230 
	C64.275108,78.207809 64.742973,68.230057 68.599136,64.761589 
	C70.685715,62.884796 72.717445,60.947037 75.344635,58.506649 
	C75.344635,83.321060 75.344635,107.431503 75.344635,132.646423 
	C72.203438,129.508942 69.248909,126.978600 66.945412,123.952652 
	C66.389915,123.222916 67.622330,120.540817 68.674133,119.300705 
	C70.933502,116.636795 72.373398,113.610336 70.214531,110.802162 
	C68.617180,108.724411 65.395012,106.349739 63.247456,106.646400 
	C60.763901,106.989479 58.442120,109.923363 56.522839,112.141449 
	C55.873722,112.891632 56.149448,115.278389 56.884064,116.252243 
	C61.267834,122.063576 62.696198,129.766693 69.300758,134.250885 
	C73.617729,137.181946 77.798080,141.015594 75.159851,147.721222 
	C70.637146,148.722427 66.418808,148.241577 63.290565,143.814240 
	C62.437973,142.607574 61.288792,141.561783 60.123566,140.633087 
	C54.894047,136.465134 51.523796,131.849838 53.762726,124.481895 
	C54.326725,122.625877 52.627563,119.574112 51.163990,117.700119 
	C45.565750,110.532005 38.540810,105.999130 28.989624,105.426880 
	C23.852594,105.119110 22.136087,100.750687 25.572573,96.909973 
	C29.679008,92.320503 27.193762,87.533928 28.124884,81.973061 
	C30.526566,84.648148 33.067177,87.216461 35.251606,90.058533 
	C35.977638,91.003136 35.978203,92.649635 35.984364,93.976761 
	C36.004528,98.321251 39.031609,101.749138 43.230469,101.989540 
	C47.289173,102.221916 50.947498,98.802406 51.045609,94.684570 
	C51.143734,90.565941 47.810810,86.655815 43.649963,87.168152 
	C40.376522,87.571228 38.775784,86.034805 36.940781,84.133110 
	C35.552799,82.694687 34.115162,81.304169 32.698471,79.893486 
	C26.683149,73.903671 26.598309,72.943466 31.624975,65.450554 
	C32.606888,66.658272 33.691547,67.698975 34.425980,68.945953 
	C37.794121,74.664658 42.703342,76.063026 48.735882,74.067123 
	C49.933617,73.670853 50.879860,72.514458 51.942078,71.708580 
	C50.798393,70.798958 49.363720,68.901428 48.557884,69.138786 
	C43.004066,70.774704 40.410984,67.468719 37.132942,63.870510 
	C33.599995,59.992500 33.656788,56.480522 35.727337,51.747055 
	C37.481945,53.390816 39.028294,54.831238 40.565254,56.281609 
	C42.139545,57.767216 43.704639,59.262566 45.370865,60.845924 
	C47.441616,59.580322 49.495579,58.290386 51.583275,57.057568 
	C54.351723,55.422741 56.849384,53.546215 60.628452,54.854744 
	C62.176201,55.390667 64.486740,53.723633 66.728958,52.783463 
z"/>
<path fill="#F9F9F9" opacity="1.000000" stroke="none" 
	d="
M44.368309,52.730659 
	C42.163643,50.448429 40.225014,48.408932 37.562302,45.607681 
	C42.073299,40.869083 46.753811,35.952412 51.475510,30.992481 
	C57.549702,37.348164 55.649593,43.637119 53.381729,49.100708 
	C52.458534,51.324810 48.973507,54.919819 44.368309,52.730659 
z"/>
</svg>