<svg xmlns="http://www.w3.org/2000/svg" xmlns:xlink="http://www.w3.org/1999/xlink" version="1.1" style="display: none;">
    <defs>
        <symbol id="arrow-down" viewBox="0 0 330 330">
            <path d="M325.607,79.393c-5.857-5.857-15.355-5.858-21.213,0.001l-139.39,139.393L25.607,79.393  c-5.857-5.857-15.355-5.858-21.213,0.001c-5.858,5.858-5.858,15.355,0,21.213l150.004,150c2.813,2.813,6.628,4.393,10.606,4.393  s7.794-1.581,10.606-4.394l149.996-150C331.465,94.749,331.465,85.251,325.607,79.393z" />
        </symbol>

        <symbol id="mj-logo" viewBox="0 0 300 300">
            <path d="M89 149V232L99.65 231.9L110.25 231.75V173.35C110.25 126.25 110.35 115 110.9 115C111.25 115 111.7 115.4 111.85 115.85C112.05 116.35 112.3 116.85 112.5 117C112.8 117.25 114.1 119.1 124.95 135C127.7 139 130.1 142.5 130.35 142.75C130.6 143.05 132.9 146.3 135.4 150C137.95 153.7 142.15 159.8 144.75 163.5C147.35 167.2 149.65 170.65 149.8 171.1C150 171.6 150.25 172 150.45 172C150.6 172 151.3 172.9 152 174L153.25 176H163.1H172.9L176.05 171.35C177.75 168.85 179.5 166.35 179.9 165.85C180.3 165.4 180.9 164.55 181.2 164.05C182.05 162.55 189.15 152.3 189.5 152C189.7 151.85 190 151.4 190.2 151C190.35 150.6 192.65 147.2 195.25 143.5C197.85 139.8 201.6 134.4 203.6 131.5C205.55 128.6 207.3 126.15 207.5 126C207.7 125.85 208 125.4 208.15 125C208.9 123.45 214.9 115.3 215.45 115.1C215.9 114.95 216 122.6 215.85 147.6C215.6 184.35 215.5 185.35 212 192.7C209.4 198.25 203.6 203.45 197.75 205.55C193.5 207.05 186.1 207.55 182.65 206.5C181.75 206.2 180.15 205.75 179.15 205.45C173.75 203.9 168.25 201.15 163.75 197.7C162.45 196.75 161.15 196.05 160.8 196.15C160.5 196.3 159.9 197 159.5 197.8C159.1 198.6 158.1 200.35 157.3 201.75C156.5 203.1 155.2 205.5 154.35 207C153.5 208.5 152.45 210.35 151.9 211.1C151.4 211.8 151 212.55 151 212.75C151 212.95 150.6 213.7 150.05 214.4C148.6 216.5 147 219.45 147 220.15C147.05 221.85 164.8 231 168.05 231C168.55 231 169.05 231.2 169.2 231.45C169.35 231.7 170.2 232 171.1 232.15C172 232.35 174 232.75 175.5 233.05C179.35 233.9 198.95 233.9 202.5 233.1C204 232.75 206 232.3 206.9 232.15C207.8 232 208.65 231.7 208.8 231.45C208.95 231.2 209.5 231 210.05 231C210.55 231 211.4 230.8 211.9 230.55C212.35 230.3 214.8 229.15 217.25 227.95C219.75 226.75 221.85 225.65 222 225.5C222.15 225.3 223.25 224.5 224.5 223.65C227.5 221.6 234.25 214.5 236.8 210.75C239.05 207.45 242 201.5 242 200.3C242 199.9 242.2 199.45 242.45 199.3C242.7 199.15 243 198.5 243.15 197.9C243.3 197.25 243.7 195.85 244 194.75C246.55 185.85 246.6 184.6 246.8 123.6L247 65.9999H230.65H214.25L210.25 72.0999C208.05 75.4499 206.05 78.4499 205.75 78.7499C205.5 79.0499 205.05 79.6499 204.75 80.0999C203.65 81.8499 192.8 97.7499 192.55 97.9999C192.4 98.1499 192.05 98.5999 191.75 99.0499C190.55 101.05 180.8 115.35 180.1 116.15C179.7 116.6 179.1 117.45 178.8 117.95C177.45 120.3 166.8 135.75 166.4 135.9C166.2 136 166 136.35 166 136.7C166 137.05 165.55 137.75 165 138.25C164.45 138.75 164 139.45 164 139.85C164 141.75 162.1 139.65 156.7 131.7C153.45 126.85 150.5 122.5 150.2 121.95C149.9 121.45 149.3 120.6 148.9 120.15C148.1 119.2 136.1 101.55 135.2 99.9499C134.9 99.4499 134.3 98.5999 133.9 98.1499C133.3 97.4499 124.7 84.8499 120 77.7999C119.6 77.1499 117.6 74.2499 115.6 71.2999L112 65.9999H100.5H89V149Z" />
            <path d="M73.5 66.8499C72.25 66.9499 71.05 67.2499 70.8 67.5499C70.5 67.7999 69.95 67.9999 69.5 67.9999C68.4 67.9999 64.5 69.9999 62.15 71.7499C59.9 73.4499 58.8 74.6499 57.45 76.8499C56.45 78.3999 54.25 79.9999 53 79.9999C52.2 79.9999 46.55 83.9499 44.75 85.6999C43.95 86.5499 42.45 88.2499 41.5 89.4999C40.55 90.7499 39.6 91.7999 39.4 91.8999C39.15 91.9999 39 92.3499 39 92.7499C39 93.0999 38.65 93.6499 38.25 93.9999C37.25 94.8499 33.45 102.75 32.85 105.25C32.6 106.35 32.3 108.6 32.15 110.2C31.95 112.5 31.55 113.6 30.5 114.95C28.55 117.45 26.75 121.55 25.85 125.5C25.1 129.1 24.85 139.45 25.55 141.85C26.1 143.9 26.05 144 23.9 147.1C22 149.85 21.5 150.25 19.55 150.65C16.6 151.25 15.15 152.25 13.95 154.55C12.25 157.9 12.75 160.3 15.65 163.4C17.1 164.9 17.45 165 20.4 165C22.85 165 23.95 164.75 25.05 163.95C26.65 162.85 27.25 162.85 33 164C34.5 164.3 36.85 164.7 38.15 164.85C40.3 165.05 41 165.55 45.75 169.8C48.65 172.4 51.2 174.9 51.45 175.4C51.7 175.85 51.7 177.45 51.45 179C51.25 180.5 51.05 182.15 51.05 182.65C51 183.6 50.25 183.55 46.05 182.2C42.85 181.15 42 180.6 42 179.5C42 178.45 41.15 176.7 40.25 175.75C39 174.55 37.3 174 34.6 174C32.15 174 31.45 174.2 29.9 175.5C28.45 176.7 28 177.5 27.7 179.25C26.95 184.45 29.7 188.1 34.45 188.15C36.8 188.2 39.3 187.35 40.1 186.3C40.3 186 42.55 186.5 45.6 187.5L50.75 189.25L59.6 197.85L68.45 206.45L73.35 206.6L78.25 206.75L78.6 211.25C79.1 217 78.85 218.45 76.95 220.4C75.65 221.7 75 222 73.25 222C71.3 222 70.85 221.75 69.15 219.8C68.1 218.6 66.7 216.5 66.05 215.15C65.4 213.85 64.7 212.35 64.45 211.9C64.2 211.4 64 210.6 64 210.1C64 209.6 63.5 208.75 62.9 208.2C61.15 206.7 58.6 205 58.1 205C57.85 205 57.05 204.45 56.3 203.75C55.4 202.9 55 202.05 55 200.85C55 199.15 53.3 197.1 50.65 195.6C48.2 194.25 44.95 195.2 42.25 198C40.95 199.35 40.75 199.9 40.75 202.4C40.75 208.55 45.75 211.5 51.85 208.95C53.35 208.35 53.6 208.4 56.15 210.1C57.95 211.3 59.05 212.45 59.45 213.6C60.3 215.75 62.15 219.7 62.5 220C62.65 220.15 63.35 221.05 64 222C65.5 224.15 65.8 224.5 67.95 226C70.1 227.5 74.8 227.7 77.5 226.4C79.3 225.55 82.25 222.65 83.4 220.65C84.35 218.9 84.3 71.9999 83.3 70.0999C81.75 67.0999 79.25 66.2999 73.5 66.8499ZM78.5 87.9999V103.95L74.65 107.65C72.5 109.65 69.5 112.45 68 113.8C63.35 117.95 63.5 117.65 63.5 122.45C63.5 124.8 63.35 128.3 63.15 130.15C62.9 133.15 62.7 133.6 61.45 134.35C60.6 134.85 59.65 136.15 59.05 137.65C57.9 140.4 57.8 141.1 58.45 142.4C58.7 142.85 59.15 143.85 59.5 144.55C59.8 145.3 61 146.35 62.1 146.95C65.75 148.85 69.55 147.95 71.9 144.5C74 141.35 73 136.35 69.75 134.2C68.5 133.4 68.5 133.3 68.5 127.1V120.75L73.1 116.4C75.65 113.95 77.9 112.05 78.1 112.1C78.55 112.25 78.7 184.5 78.25 184.95C78.1 185.1 76 183.2 73.55 180.8C68.45 175.7 68.35 175.2 71.8 171.7C73.8 169.7 74 169.3 74 167C74 163.2 72.35 160.95 68.65 159.65C66.65 159 64.45 159.4 62.2 160.8C60.95 161.65 59 165.2 59 166.65C59.05 168.45 61.25 172.2 62.65 172.9C63.85 173.5 64 173.85 64 176.15V178.75L71.25 186L78.5 193.25V197.1V201H74.5H70.5L63.15 193.65L55.85 186.35L56.4 182C57.6 173.25 57.85 174.05 50.8 167.2C44.4 160.95 43.9 160.65 38.5 159.75C37.55 159.6 35.65 159.25 34.25 158.95C32.9 158.7 31 158.35 30.1 158.15C29.15 158 28.3 157.5 28.15 157.05C28 156.6 27.55 155.55 27.1 154.65C26.3 153.1 26.3 153.05 28.7 149.45C31.3 145.55 31.35 145.4 30.2 137.6C30 136.35 30.1 135.5 30.4 135.5C30.65 135.5 32.75 137.45 35.05 139.8L39.25 144.1L39.1 146.5C38.7 152.2 44.4 156.6 49.35 154.4C55.55 151.6 55.6 143.75 49.4 140.55C48.5 140.1 47.25 139.95 45.6 140.15L43.15 140.45L37.1 134.35C31.5 128.75 31 128.1 31 126.4C31 125.4 31.25 124.4 31.5 124.25C31.8 124.1 32 123.6 32 123.2C32 122.2 34.15 119 34.8 119C35.15 119 35.75 119.6 36.25 120.3C36.7 121 37.95 122.5 39.1 123.65C40.2 124.8 41.45 126.25 41.85 126.85C42.75 128.2 43.55 128.25 49.45 127.4C54.75 126.65 56.25 125.2 54.15 122.9C53.25 121.9 49.85 121.7 47.15 122.45C45.6 122.9 45.4 122.8 43.15 120.1C41.8 118.55 40.65 117.15 40.5 117C37.05 113.55 36.4 111.55 37.55 107.95C37.85 107 38.2 105.95 38.3 105.6C38.6 104.65 39.4 105.25 44.2 109.9L48.45 114L50.65 112.5C51.9 111.7 53.1 111 53.4 111C53.7 111 54 110.85 54.1 110.6C54.2 110.4 55.5 109.5 57 108.55C59.45 107.05 59.9 106.95 61.3 107.45C65.7 109.05 69.5 107.35 71.3 103.05C72.25 100.75 72.2 99.8499 70.8 97.3999C69.95 95.8499 68.85 94.8499 66.95 93.8499C64.55 92.5999 64.2 92.1499 63.5 89.9999C63.1 88.6499 62.55 87.3999 62.35 87.1999C62.15 86.9999 62 86.2999 62 85.6999C62 85.0499 61.8 84.3999 61.5 84.2499C61.25 84.0999 61 83.1499 61 82.1499C61 80.6499 61.45 79.9499 63.9 77.5499C65.45 75.9999 67.8 74.3499 69 73.7999C70.25 73.2999 71.6 72.6999 72 72.4999C72.4 72.2499 74.05 72.0499 75.65 72.0499L78.5 71.9999V87.9999ZM57.6 89.2499C59.25 94.0499 59.3 94.4999 58 96.5999C57.45 97.5499 57 99.1499 57 100.3C57 102.15 56.8 102.5 55 103.7C53.9 104.4 52.9 105 52.7 105C52.55 105 51.85 105.45 51.15 106C50.45 106.55 49.6 107 49.3 107C49 107 47 105.3 44.8 103.3L40.9 99.5999L42.95 96.4999C46.75 90.8499 53.15 84.8499 55.25 85.1499C56 85.1999 56.55 86.1999 57.6 89.2499ZM66 99.0999C67.2 100.4 67.25 100.9 66.15 102.1C65.25 103.15 63.5 103.3 62.6 102.4C61.7 101.5 61.85 99.4499 62.9 98.6999C64.1 97.7499 64.8 97.8499 66 99.0999ZM67.1 138.85C68.75 140.35 67.95 143 65.8 143C64.7 143 63 141.65 63 140.8C63 139.8 64.55 138 65.35 138C65.8 138 66.6 138.35 67.1 138.85ZM48.1 145.85C49.2 146.85 49.25 147.9 48.15 149.1C47.15 150.2 46.1 150.25 44.9 149.15C43.8 148.15 43.75 147.1 44.85 145.9C45.85 144.8 46.9 144.75 48.1 145.85ZM22.2 156.3C23.8 157.9 22.85 160 20.5 160C18.15 160 17.25 158.15 18.85 156.4C19.85 155.3 21.15 155.25 22.2 156.3ZM68.1 164.85C69.15 165.75 69.3 167.5 68.4 168.4C67 169.8 64.05 168.6 64 166.6C64 165.85 65.8 164 66.6 164C66.9 164 67.6 164.35 68.1 164.85ZM35.7 179C38.05 179.85 37.1 183.5 34.55 183.5C34 183.5 32 181.55 32 181C32 180.65 33.95 178.5 34.25 178.5C34.35 178.5 35 178.7 35.7 179ZM49.05 200.65C51.05 202.2 50.4 205 48 205C45.9 205 45 203.1 46.2 201.25C47.1 199.9 47.85 199.7 49.05 200.65Z" />
            <path d="M251.15 149.35C251.3 150.15 251.7 151.65 252 152.75C252.75 155.35 253.4 157.85 253.75 159.75C253.95 160.55 254.25 161.7 254.5 162.25C254.75 162.8 255.05 163.9 255.25 164.75C255.4 165.55 255.75 167.15 256.05 168.25C256.3 169.35 256.75 171.15 257.05 172.25C257.3 173.35 257.75 175.1 258 176.1C259.1 180.4 259.6 182.3 259.85 183.6C260.15 185.25 260.65 185.4 261.3 184.05C262 182.6 267.2 175.55 267.6 175.5C267.8 175.5 269 176.75 270.35 178.35C271.65 179.9 274.45 182.95 276.55 185.15L280.35 189.2L284 185.65L287.65 182.15L284.65 178.95C283 177.2 280.8 174.75 279.7 173.5C278.65 172.3 277.25 170.75 276.6 170.1C275.95 169.45 275.5 168.7 275.6 168.4C275.7 168.15 277 167.25 278.5 166.4C280 165.55 281.85 164.45 282.6 163.95C283.3 163.45 284.15 163 284.45 163C284.75 163 285 162.55 285 162C285 161.45 284.65 161 284.25 161C283.85 161 282.4 160.55 281.1 159.95C279.8 159.35 278.3 158.7 277.75 158.5C277.2 158.3 275.95 157.75 275 157.35C274.05 156.9 272.25 156.2 271 155.7C269.75 155.25 268.55 154.65 268.3 154.4C268 154.2 267.5 154 267.15 154C266.8 154 265.4 153.55 264.1 152.95C262.8 152.35 261.3 151.7 260.75 151.5C260.2 151.3 258.95 150.75 258 150.35C251.3 147.45 250.75 147.4 251.15 149.35Z" />
        </symbol>

        <symbol id="mail" viewBox="0 0 24 24">
            <path d="M20 4a3 3 0 0 1 3 3v10a3 3 0 0 1-3 3H4a3 3 0 0 1-3-3V7a3 3 0 0 1 3-3h16Zm-.747 2H4.747l6.633 5.237a1 1 0 0 0 1.24 0L19.253 6ZM3 7.169V17a1 1 0 0 0 1 1h16a1 1 0 0 0 1-1V7.169l-7.141 5.638a3 3 0 0 1-3.718 0L3 7.168Z" />
        </symbol>

        <symbol id="phone" viewBox="0 0 24 24">
            <path d="M21.384,17.752a2.108,2.108,0,0,1-.522,3.359,7.543,7.543,0,0,1-5.476.642C10.5,20.523,3.477,13.5,2.247,8.614a7.543,7.543,0,0,1,.642-5.476,2.108,2.108,0,0,1,3.359-.522L8.333,4.7a2.094,2.094,0,0,1,.445,2.328A3.877,3.877,0,0,1,8,8.2c-2.384,2.384,5.417,10.185,7.8,7.8a3.877,3.877,0,0,1,1.173-.781,2.092,2.092,0,0,1,2.328.445Z"/>
        </symbol>
    </defs>
</svg>