<svg xmlns="http://www.w3.org/2000/svg" xmlns:xlink="http://www.w3.org/1999/xlink" version="1.1" style="display: none;">
    <defs>
        <symbol id="arrow-down" viewBox="0 0 330 330">
            <path d="M325.607,79.393c-5.857-5.857-15.355-5.858-21.213,0.001l-139.39,139.393L25.607,79.393  c-5.857-5.857-15.355-5.858-21.213,0.001c-5.858,5.858-5.858,15.355,0,21.213l150.004,150c2.813,2.813,6.628,4.393,10.606,4.393  s7.794-1.581,10.606-4.394l149.996-150C331.465,94.749,331.465,85.251,325.607,79.393z" />
        </symbol>

        <symbol id="mail" viewBox="0 0 24 24">
            <path d="M20 4a3 3 0 0 1 3 3v10a3 3 0 0 1-3 3H4a3 3 0 0 1-3-3V7a3 3 0 0 1 3-3h16Zm-.747 2H4.747l6.633 5.237a1 1 0 0 0 1.24 0L19.253 6ZM3 7.169V17a1 1 0 0 0 1 1h16a1 1 0 0 0 1-1V7.169l-7.141 5.638a3 3 0 0 1-3.718 0L3 7.168Z" />
        </symbol>

        <symbol id="phone" viewBox="0 0 24 24">
            <path d="M21.384,17.752a2.108,2.108,0,0,1-.522,3.359,7.543,7.543,0,0,1-5.476.642C10.5,20.523,3.477,13.5,2.247,8.614a7.543,7.543,0,0,1,.642-5.476,2.108,2.108,0,0,1,3.359-.522L8.333,4.7a2.094,2.094,0,0,1,.445,2.328A3.877,3.877,0,0,1,8,8.2c-2.384,2.384,5.417,10.185,7.8,7.8a3.877,3.877,0,0,1,1.173-.781,2.092,2.092,0,0,1,2.328.445Z"/>
        </symbol>
    </defs>
</svg>